<?xml version="1.0" encoding="UTF-8" standalone="no"?>
<!-- Created with Inkscape (http://www.inkscape.org/) -->

<svg
   xmlns:dc="http://purl.org/dc/elements/1.1/"
   xmlns:cc="http://creativecommons.org/ns#"
   xmlns:rdf="http://www.w3.org/1999/02/22-rdf-syntax-ns#"
   xmlns:svg="http://www.w3.org/2000/svg"
   xmlns="http://www.w3.org/2000/svg"
   xmlns:sodipodi="http://sodipodi.sourceforge.net/DTD/sodipodi-0.dtd"
   xmlns:inkscape="http://www.inkscape.org/namespaces/inkscape"
   id="svg2"
   version="1.1"
   inkscape:version="0.48.5 r10040"
   width="315.6524"
   height="83.758751"
   xml:space="preserve"
   sodipodi:docname="ps.pdf"><metadata
     id="metadata8"><rdf:RDF><cc:Work
         rdf:about=""><dc:format>image/svg+xml</dc:format><dc:type
           rdf:resource="http://purl.org/dc/dcmitype/StillImage" /><dc:title></dc:title></cc:Work></rdf:RDF></metadata><defs
     id="defs6"><clipPath
       clipPathUnits="userSpaceOnUse"
       id="clipPath16"><path
         d="m 0,2110.1 1513.362,0 0,-2110.1 L 0,0 0,2110.1 z"
         id="path18"
         inkscape:connector-curvature="0" /></clipPath><clipPath
       clipPathUnits="userSpaceOnUse"
       id="clipPath11430"><path
         d="m 634.337,706.668 18.684,0 0,-18.683 -18.684,0 0,18.683 z"
         id="path11432"
         inkscape:connector-curvature="0" /></clipPath><clipPath
       clipPathUnits="userSpaceOnUse"
       id="clipPath11610"><path
         d="m 659.307,906.055 36.652,0 0,-28.561 -36.652,0 0,28.561 z"
         id="path11612"
         inkscape:connector-curvature="0" /></clipPath><clipPath
       clipPathUnits="userSpaceOnUse"
       id="clipPath11626"><path
         d="m 629.129,826.481 34.488,0 0,-27.483 -34.488,0 0,27.483 z"
         id="path11628"
         inkscape:connector-curvature="0" /></clipPath><clipPath
       clipPathUnits="userSpaceOnUse"
       id="clipPath11854"><path
         d="m 431.872,865.641 19.223,0 0,-27.664 -19.223,0 0,27.664 z"
         id="path11856"
         inkscape:connector-curvature="0" /></clipPath><clipPath
       clipPathUnits="userSpaceOnUse"
       id="clipPath12078"><path
         d="m 530.319,2104.42 783.991,0 0,-2100.91243 -783.991,0 0,2100.91243 z"
         id="path12080"
         inkscape:connector-curvature="0" /></clipPath><clipPath
       clipPathUnits="userSpaceOnUse"
       id="clipPath12372"><path
         d="m 0,2110.1 1513.362,0 0,-2110.1 L 0,0 0,2110.1 z"
         id="path12374"
         inkscape:connector-curvature="0" /></clipPath><clipPath
       clipPathUnits="userSpaceOnUse"
       id="clipPath12380"><path
         d="m -2.44527,2106.46 457.14927,0 0,-652.02 -457.14927,0 0,652.02 z"
         id="path12382"
         inkscape:connector-curvature="0" /></clipPath><clipPath
       clipPathUnits="userSpaceOnUse"
       id="clipPath12396"><path
         d="m 346.833,1078.42 429.715,0 0,-438.832 -429.715,0 0,438.832 z"
         id="path12398"
         inkscape:connector-curvature="0" /></clipPath><clipPath
       clipPathUnits="userSpaceOnUse"
       id="clipPath12412"><path
         d="m 743.854,1804.56 232.749,0 0,-354.62 -232.749,0 0,354.62 z"
         id="path12414"
         inkscape:connector-curvature="0" /></clipPath><clipPath
       clipPathUnits="userSpaceOnUse"
       id="clipPath12428"><path
         d="m 401.395,1449.19 572.584,0 0,-537.252 -572.584,0 0,537.252 z"
         id="path12430"
         inkscape:connector-curvature="0" /></clipPath><clipPath
       clipPathUnits="userSpaceOnUse"
       id="clipPath12444"><path
         d="m 719.729,940.938 191.875,0 0,-312.625 -191.875,0 0,312.625 z"
         id="path12446"
         inkscape:connector-curvature="0" /></clipPath><clipPath
       clipPathUnits="userSpaceOnUse"
       id="clipPath12460"><path
         d="m 842.395,683.104 204.335,0 0,-673.99951 -204.335,0 0,673.99951 z"
         id="path12462"
         inkscape:connector-curvature="0" /></clipPath><clipPath
       clipPathUnits="userSpaceOnUse"
       id="clipPath12476"><path
         d="m 1033.23,1437.24 472.5,0 0,-1035.802 -472.5,0 0,1035.802 z"
         id="path12478"
         inkscape:connector-curvature="0" /></clipPath><clipPath
       clipPathUnits="userSpaceOnUse"
       id="clipPath12492"><path
         d="m 1119.9,2107.44 385.83,0 0,-681 -385.83,0 0,681 z"
         id="path12494"
         inkscape:connector-curvature="0" /></clipPath><clipPath
       clipPathUnits="userSpaceOnUse"
       id="clipPath12508"><path
         d="m 753.728,2102.94 391.002,0 0,-479 -391.002,0 0,479 z"
         id="path12510"
         inkscape:connector-curvature="0" /></clipPath><clipPath
       clipPathUnits="userSpaceOnUse"
       id="clipPath12524"><path
         d="m 442.572,2061.51 344.532,0 0,-609.28 -344.532,0 0,609.28 z"
         id="path12526"
         inkscape:connector-curvature="0" /></clipPath><clipPath
       clipPathUnits="userSpaceOnUse"
       id="clipPath12540"><path
         d="m 377.062,820.104 448.333,0 0,-820.666256 -448.333,0 0,820.666256 z"
         id="path12542"
         inkscape:connector-curvature="0" /></clipPath><clipPath
       clipPathUnits="userSpaceOnUse"
       id="clipPath12556"><path
         d="m 1072.11,750.617 0.87,0 0,-0.69 -0.87,0 0,0.69 z"
         id="path12558"
         inkscape:connector-curvature="0" /></clipPath><clipPath
       clipPathUnits="userSpaceOnUse"
       id="clipPath12572"><path
         d="m 1041.89,873.617 136.15,0 0,-229.169 -136.15,0 0,229.169 z"
         id="path12574"
         inkscape:connector-curvature="0" /></clipPath><clipPath
       clipPathUnits="userSpaceOnUse"
       id="clipPath12598"><path
         d="m 0,2110.1 1513.362,0 0,-2110.1 L 0,0 0,2110.1 z"
         id="path12600"
         inkscape:connector-curvature="0" /></clipPath><clipPath
       clipPathUnits="userSpaceOnUse"
       id="clipPath12854"><path
         d="m 0,2110.1 1513.362,0 0,-2110.1 L 0,0 0,2110.1 z"
         id="path12856"
         inkscape:connector-curvature="0" /></clipPath><clipPath
       clipPathUnits="userSpaceOnUse"
       id="clipPath13150"><path
         d="m 0,2110.1 1513.362,0 0,-2110.1 L 0,0 0,2110.1 z"
         id="path13152"
         inkscape:connector-curvature="0" /></clipPath><clipPath
       clipPathUnits="userSpaceOnUse"
       id="clipPath13406"><path
         d="m 0,2110.1 1513.362,0 0,-2110.1 L 0,0 0,2110.1 z"
         id="path13408"
         inkscape:connector-curvature="0" /></clipPath><clipPath
       clipPathUnits="userSpaceOnUse"
       id="clipPath20298"><path
         d="m 0,2110.1 1513.362,0 0,-2110.1 L 0,0 0,2110.1 z"
         id="path20300"
         inkscape:connector-curvature="0" /></clipPath><clipPath
       clipPathUnits="userSpaceOnUse"
       id="clipPath20346"><path
         d="m 0,2110.1 1513.362,0 0,-2110.1 L 0,0 0,2110.1 z"
         id="path20348"
         inkscape:connector-curvature="0" /></clipPath><clipPath
       clipPathUnits="userSpaceOnUse"
       id="clipPath20370"><path
         d="m 0,2110.1 1513.362,0 0,-2110.1 L 0,0 0,2110.1 z"
         id="path20372"
         inkscape:connector-curvature="0" /></clipPath><clipPath
       clipPathUnits="userSpaceOnUse"
       id="clipPath20394"><path
         d="m 0,2110.1 1513.362,0 0,-2110.1 L 0,0 0,2110.1 z"
         id="path20396"
         inkscape:connector-curvature="0" /></clipPath><clipPath
       clipPathUnits="userSpaceOnUse"
       id="clipPath20446"><path
         d="m 0,2110.1 1513.362,0 0,-2110.1 L 0,0 0,2110.1 z"
         id="path20448"
         inkscape:connector-curvature="0" /></clipPath><clipPath
       clipPathUnits="userSpaceOnUse"
       id="clipPath20466"><path
         d="m 0,2110.1 1513.362,0 0,-2110.1 L 0,0 0,2110.1 z"
         id="path20468"
         inkscape:connector-curvature="0" /></clipPath><clipPath
       clipPathUnits="userSpaceOnUse"
       id="clipPath20506"><path
         d="m 0,2110.1 1513.362,0 0,-2110.1 L 0,0 0,2110.1 z"
         id="path20508"
         inkscape:connector-curvature="0" /></clipPath><clipPath
       clipPathUnits="userSpaceOnUse"
       id="clipPath20526"><path
         d="m 0,2110.1 1513.362,0 0,-2110.1 L 0,0 0,2110.1 z"
         id="path20528"
         inkscape:connector-curvature="0" /></clipPath><clipPath
       clipPathUnits="userSpaceOnUse"
       id="clipPath20554"><path
         d="m 0,2110.1 1513.362,0 0,-2110.1 L 0,0 0,2110.1 z"
         id="path20556"
         inkscape:connector-curvature="0" /></clipPath><clipPath
       clipPathUnits="userSpaceOnUse"
       id="clipPath20624"><path
         d="m 0,2110.1 1513.362,0 0,-2110.1 L 0,0 0,2110.1 z"
         id="path20626"
         inkscape:connector-curvature="0" /></clipPath><clipPath
       clipPathUnits="userSpaceOnUse"
       id="clipPath20702"><path
         d="m 0,2110.1 1513.362,0 0,-2110.1 L 0,0 0,2110.1 z"
         id="path20704"
         inkscape:connector-curvature="0" /></clipPath><clipPath
       clipPathUnits="userSpaceOnUse"
       id="clipPath20722"><path
         d="m 0,2110.1 1513.362,0 0,-2110.1 L 0,0 0,2110.1 z"
         id="path20724"
         inkscape:connector-curvature="0" /></clipPath><clipPath
       clipPathUnits="userSpaceOnUse"
       id="clipPath21106"><path
         d="m 0,2110.1 1513.362,0 0,-2110.1 L 0,0 0,2110.1 z"
         id="path21108"
         inkscape:connector-curvature="0" /></clipPath><clipPath
       clipPathUnits="userSpaceOnUse"
       id="clipPath21126"><path
         d="m 0,2110.1 1513.362,0 0,-2110.1 L 0,0 0,2110.1 z"
         id="path21128"
         inkscape:connector-curvature="0" /></clipPath><clipPath
       clipPathUnits="userSpaceOnUse"
       id="clipPath21146"><path
         d="m 0,2110.1 1513.362,0 0,-2110.1 L 0,0 0,2110.1 z"
         id="path21148"
         inkscape:connector-curvature="0" /></clipPath><clipPath
       clipPathUnits="userSpaceOnUse"
       id="clipPath21166"><path
         d="m 0,2110.1 1513.362,0 0,-2110.1 L 0,0 0,2110.1 z"
         id="path21168"
         inkscape:connector-curvature="0" /></clipPath><clipPath
       clipPathUnits="userSpaceOnUse"
       id="clipPath21210"><path
         d="m 0,2110.1 1513.362,0 0,-2110.1 L 0,0 0,2110.1 z"
         id="path21212"
         inkscape:connector-curvature="0" /></clipPath><clipPath
       clipPathUnits="userSpaceOnUse"
       id="clipPath21230"><path
         d="m 0,2110.1 1513.362,0 0,-2110.1 L 0,0 0,2110.1 z"
         id="path21232"
         inkscape:connector-curvature="0" /></clipPath><clipPath
       clipPathUnits="userSpaceOnUse"
       id="clipPath21258"><path
         d="m 0,2110.1 1513.362,0 0,-2110.1 L 0,0 0,2110.1 z"
         id="path21260"
         inkscape:connector-curvature="0" /></clipPath><clipPath
       clipPathUnits="userSpaceOnUse"
       id="clipPath21332"><path
         d="m 0,2110.1 1513.362,0 0,-2110.1 L 0,0 0,2110.1 z"
         id="path21334"
         inkscape:connector-curvature="0" /></clipPath><clipPath
       clipPathUnits="userSpaceOnUse"
       id="clipPath21352"><path
         d="m 0,2110.1 1513.362,0 0,-2110.1 L 0,0 0,2110.1 z"
         id="path21354"
         inkscape:connector-curvature="0" /></clipPath><clipPath
       clipPathUnits="userSpaceOnUse"
       id="clipPath21372"><path
         d="m 0,2110.1 1513.362,0 0,-2110.1 L 0,0 0,2110.1 z"
         id="path21374"
         inkscape:connector-curvature="0" /></clipPath><clipPath
       clipPathUnits="userSpaceOnUse"
       id="clipPath21408"><path
         d="m 0,2110.1 1513.362,0 0,-2110.1 L 0,0 0,2110.1 z"
         id="path21410"
         inkscape:connector-curvature="0" /></clipPath><clipPath
       clipPathUnits="userSpaceOnUse"
       id="clipPath21496"><path
         d="m 0,2110.1 1513.362,0 0,-2110.1 L 0,0 0,2110.1 z"
         id="path21498"
         inkscape:connector-curvature="0" /></clipPath><clipPath
       clipPathUnits="userSpaceOnUse"
       id="clipPath21516"><path
         d="m 0,2110.1 1513.362,0 0,-2110.1 L 0,0 0,2110.1 z"
         id="path21518"
         inkscape:connector-curvature="0" /></clipPath><clipPath
       clipPathUnits="userSpaceOnUse"
       id="clipPath21570"><path
         d="m 0,2110.1 1513.362,0 0,-2110.1 L 0,0 0,2110.1 z"
         id="path21572"
         inkscape:connector-curvature="0" /></clipPath><clipPath
       clipPathUnits="userSpaceOnUse"
       id="clipPath21596"><path
         d="m 0,2110.1 1513.362,0 0,-2110.1 L 0,0 0,2110.1 z"
         id="path21598"
         inkscape:connector-curvature="0" /></clipPath><clipPath
       clipPathUnits="userSpaceOnUse"
       id="clipPath21682"><path
         d="m 0,2110.1 1513.362,0 0,-2110.1 L 0,0 0,2110.1 z"
         id="path21684"
         inkscape:connector-curvature="0" /></clipPath><clipPath
       clipPathUnits="userSpaceOnUse"
       id="clipPath21702"><path
         d="m 0,2110.1 1513.362,0 0,-2110.1 L 0,0 0,2110.1 z"
         id="path21704"
         inkscape:connector-curvature="0" /></clipPath><clipPath
       clipPathUnits="userSpaceOnUse"
       id="clipPath21738"><path
         d="m 0,2110.1 1513.362,0 0,-2110.1 L 0,0 0,2110.1 z"
         id="path21740"
         inkscape:connector-curvature="0" /></clipPath><clipPath
       clipPathUnits="userSpaceOnUse"
       id="clipPath21808"><path
         d="m 0,2110.1 1513.362,0 0,-2110.1 L 0,0 0,2110.1 z"
         id="path21810"
         inkscape:connector-curvature="0" /></clipPath><clipPath
       clipPathUnits="userSpaceOnUse"
       id="clipPath21828"><path
         d="m 0,2110.1 1513.362,0 0,-2110.1 L 0,0 0,2110.1 z"
         id="path21830"
         inkscape:connector-curvature="0" /></clipPath><clipPath
       clipPathUnits="userSpaceOnUse"
       id="clipPath21836"><path
         d="m 93.0614,2034.48 1357.2986,0 0,-1619.104 -1357.2986,0 0,1619.104 z"
         id="path21838"
         inkscape:connector-curvature="0" /></clipPath><clipPath
       clipPathUnits="userSpaceOnUse"
       id="clipPath21898"><path
         d="m 0,2110.1 1513.362,0 0,-2110.1 L 0,0 0,2110.1 z"
         id="path21900"
         inkscape:connector-curvature="0" /></clipPath><clipPath
       clipPathUnits="userSpaceOnUse"
       id="clipPath22298"><path
         d="m 0,2110.1 1513.362,0 0,-2110.1 L 0,0 0,2110.1 z"
         id="path22300"
         inkscape:connector-curvature="0" /></clipPath><clipPath
       clipPathUnits="userSpaceOnUse"
       id="clipPath22866"><path
         d="m 0,2110.1 1513.362,0 0,-2110.1 L 0,0 0,2110.1 z"
         id="path22868"
         inkscape:connector-curvature="0" /></clipPath><clipPath
       clipPathUnits="userSpaceOnUse"
       id="clipPath22890"><path
         d="m 0,2110.1 1513.362,0 0,-2110.1 L 0,0 0,2110.1 z"
         id="path22892"
         inkscape:connector-curvature="0" /></clipPath><clipPath
       clipPathUnits="userSpaceOnUse"
       id="clipPath22914"><path
         d="m 0,2110.1 1513.362,0 0,-2110.1 L 0,0 0,2110.1 z"
         id="path22916"
         inkscape:connector-curvature="0" /></clipPath><clipPath
       clipPathUnits="userSpaceOnUse"
       id="clipPath22938"><path
         d="m 0,2110.1 1513.362,0 0,-2110.1 L 0,0 0,2110.1 z"
         id="path22940"
         inkscape:connector-curvature="0" /></clipPath><clipPath
       clipPathUnits="userSpaceOnUse"
       id="clipPath22962"><path
         d="m 0,2110.1 1513.362,0 0,-2110.1 L 0,0 0,2110.1 z"
         id="path22964"
         inkscape:connector-curvature="0" /></clipPath><clipPath
       clipPathUnits="userSpaceOnUse"
       id="clipPath22986"><path
         d="m 0,2110.1 1513.362,0 0,-2110.1 L 0,0 0,2110.1 z"
         id="path22988"
         inkscape:connector-curvature="0" /></clipPath><clipPath
       clipPathUnits="userSpaceOnUse"
       id="clipPath23010"><path
         d="m 0,2110.1 1513.362,0 0,-2110.1 L 0,0 0,2110.1 z"
         id="path23012"
         inkscape:connector-curvature="0" /></clipPath><clipPath
       clipPathUnits="userSpaceOnUse"
       id="clipPath23034"><path
         d="m 0,2110.1 1513.362,0 0,-2110.1 L 0,0 0,2110.1 z"
         id="path23036"
         inkscape:connector-curvature="0" /></clipPath><clipPath
       clipPathUnits="userSpaceOnUse"
       id="clipPath23058"><path
         d="m 0,2110.1 1513.362,0 0,-2110.1 L 0,0 0,2110.1 z"
         id="path23060"
         inkscape:connector-curvature="0" /></clipPath><clipPath
       clipPathUnits="userSpaceOnUse"
       id="clipPath23082"><path
         d="m 0,2110.1 1513.362,0 0,-2110.1 L 0,0 0,2110.1 z"
         id="path23084"
         inkscape:connector-curvature="0" /></clipPath><clipPath
       clipPathUnits="userSpaceOnUse"
       id="clipPath23106"><path
         d="m 0,2110.1 1513.362,0 0,-2110.1 L 0,0 0,2110.1 z"
         id="path23108"
         inkscape:connector-curvature="0" /></clipPath><clipPath
       clipPathUnits="userSpaceOnUse"
       id="clipPath23130"><path
         d="m 0,2110.1 1513.362,0 0,-2110.1 L 0,0 0,2110.1 z"
         id="path23132"
         inkscape:connector-curvature="0" /></clipPath><clipPath
       clipPathUnits="userSpaceOnUse"
       id="clipPath23154"><path
         d="m 0,2110.1 1513.362,0 0,-2110.1 L 0,0 0,2110.1 z"
         id="path23156"
         inkscape:connector-curvature="0" /></clipPath><clipPath
       clipPathUnits="userSpaceOnUse"
       id="clipPath23178"><path
         d="m 0,2110.1 1513.362,0 0,-2110.1 L 0,0 0,2110.1 z"
         id="path23180"
         inkscape:connector-curvature="0" /></clipPath><clipPath
       clipPathUnits="userSpaceOnUse"
       id="clipPath23202"><path
         d="m 0,2110.1 1513.362,0 0,-2110.1 L 0,0 0,2110.1 z"
         id="path23204"
         inkscape:connector-curvature="0" /></clipPath><clipPath
       clipPathUnits="userSpaceOnUse"
       id="clipPath23226"><path
         d="m 0,2110.1 1513.362,0 0,-2110.1 L 0,0 0,2110.1 z"
         id="path23228"
         inkscape:connector-curvature="0" /></clipPath><clipPath
       clipPathUnits="userSpaceOnUse"
       id="clipPath23250"><path
         d="m 0,2110.1 1513.362,0 0,-2110.1 L 0,0 0,2110.1 z"
         id="path23252"
         inkscape:connector-curvature="0" /></clipPath><clipPath
       clipPathUnits="userSpaceOnUse"
       id="clipPath23276"><path
         d="m 0,2110.1 1513.362,0 0,-2110.1 L 0,0 0,2110.1 z"
         id="path23278"
         inkscape:connector-curvature="0" /></clipPath><clipPath
       clipPathUnits="userSpaceOnUse"
       id="clipPath23290"><path
         d="m 0,2110.1 1513.362,0 0,-2110.1 L 0,0 0,2110.1 z"
         id="path23292"
         inkscape:connector-curvature="0" /></clipPath><clipPath
       clipPathUnits="userSpaceOnUse"
       id="clipPath23306"><path
         d="m 0,2110.1 1513.362,0 0,-2110.1 L 0,0 0,2110.1 z"
         id="path23308"
         inkscape:connector-curvature="0" /></clipPath><clipPath
       clipPathUnits="userSpaceOnUse"
       id="clipPath23338"><path
         d="m 0,2110.1 1513.362,0 0,-2110.1 L 0,0 0,2110.1 z"
         id="path23340"
         inkscape:connector-curvature="0" /></clipPath><clipPath
       clipPathUnits="userSpaceOnUse"
       id="clipPath23378"><path
         d="m 0,2110.1 1513.362,0 0,-2110.1 L 0,0 0,2110.1 z"
         id="path23380"
         inkscape:connector-curvature="0" /></clipPath><clipPath
       clipPathUnits="userSpaceOnUse"
       id="clipPath23422"><path
         d="m 0,2110.1 1513.362,0 0,-2110.1 L 0,0 0,2110.1 z"
         id="path23424"
         inkscape:connector-curvature="0" /></clipPath><clipPath
       clipPathUnits="userSpaceOnUse"
       id="clipPath23458"><path
         d="m 0,2110.1 1513.362,0 0,-2110.1 L 0,0 0,2110.1 z"
         id="path23460"
         inkscape:connector-curvature="0" /></clipPath><clipPath
       clipPathUnits="userSpaceOnUse"
       id="clipPath23486"><path
         d="m 0,2110.1 1513.362,0 0,-2110.1 L 0,0 0,2110.1 z"
         id="path23488"
         inkscape:connector-curvature="0" /></clipPath><clipPath
       clipPathUnits="userSpaceOnUse"
       id="clipPath23514"><path
         d="m 0,2110.1 1513.362,0 0,-2110.1 L 0,0 0,2110.1 z"
         id="path23516"
         inkscape:connector-curvature="0" /></clipPath><clipPath
       clipPathUnits="userSpaceOnUse"
       id="clipPath23538"><path
         d="m 0,2110.1 1513.362,0 0,-2110.1 L 0,0 0,2110.1 z"
         id="path23540"
         inkscape:connector-curvature="0" /></clipPath><clipPath
       clipPathUnits="userSpaceOnUse"
       id="clipPath23562"><path
         d="m 0,2110.1 1513.362,0 0,-2110.1 L 0,0 0,2110.1 z"
         id="path23564"
         inkscape:connector-curvature="0" /></clipPath><clipPath
       clipPathUnits="userSpaceOnUse"
       id="clipPath23586"><path
         d="m 0,2110.1 1513.362,0 0,-2110.1 L 0,0 0,2110.1 z"
         id="path23588"
         inkscape:connector-curvature="0" /></clipPath><clipPath
       clipPathUnits="userSpaceOnUse"
       id="clipPath23610"><path
         d="m 0,2110.1 1513.362,0 0,-2110.1 L 0,0 0,2110.1 z"
         id="path23612"
         inkscape:connector-curvature="0" /></clipPath><clipPath
       clipPathUnits="userSpaceOnUse"
       id="clipPath23634"><path
         d="m 0,2110.1 1513.362,0 0,-2110.1 L 0,0 0,2110.1 z"
         id="path23636"
         inkscape:connector-curvature="0" /></clipPath><clipPath
       clipPathUnits="userSpaceOnUse"
       id="clipPath23658"><path
         d="m 0,2110.1 1513.362,0 0,-2110.1 L 0,0 0,2110.1 z"
         id="path23660"
         inkscape:connector-curvature="0" /></clipPath><clipPath
       clipPathUnits="userSpaceOnUse"
       id="clipPath23682"><path
         d="m 0,2110.1 1513.362,0 0,-2110.1 L 0,0 0,2110.1 z"
         id="path23684"
         inkscape:connector-curvature="0" /></clipPath><clipPath
       clipPathUnits="userSpaceOnUse"
       id="clipPath23706"><path
         d="m 0,2110.1 1513.362,0 0,-2110.1 L 0,0 0,2110.1 z"
         id="path23708"
         inkscape:connector-curvature="0" /></clipPath><clipPath
       clipPathUnits="userSpaceOnUse"
       id="clipPath23730"><path
         d="m 0,2110.1 1513.362,0 0,-2110.1 L 0,0 0,2110.1 z"
         id="path23732"
         inkscape:connector-curvature="0" /></clipPath><clipPath
       clipPathUnits="userSpaceOnUse"
       id="clipPath23754"><path
         d="m 0,2110.1 1513.362,0 0,-2110.1 L 0,0 0,2110.1 z"
         id="path23756"
         inkscape:connector-curvature="0" /></clipPath><clipPath
       clipPathUnits="userSpaceOnUse"
       id="clipPath23778"><path
         d="m 0,2110.1 1513.362,0 0,-2110.1 L 0,0 0,2110.1 z"
         id="path23780"
         inkscape:connector-curvature="0" /></clipPath><clipPath
       clipPathUnits="userSpaceOnUse"
       id="clipPath23802"><path
         d="m 0,2110.1 1513.362,0 0,-2110.1 L 0,0 0,2110.1 z"
         id="path23804"
         inkscape:connector-curvature="0" /></clipPath><clipPath
       clipPathUnits="userSpaceOnUse"
       id="clipPath23826"><path
         d="m 0,2110.1 1513.362,0 0,-2110.1 L 0,0 0,2110.1 z"
         id="path23828"
         inkscape:connector-curvature="0" /></clipPath><clipPath
       clipPathUnits="userSpaceOnUse"
       id="clipPath23850"><path
         d="m 0,2110.1 1513.362,0 0,-2110.1 L 0,0 0,2110.1 z"
         id="path23852"
         inkscape:connector-curvature="0" /></clipPath><clipPath
       clipPathUnits="userSpaceOnUse"
       id="clipPath23874"><path
         d="m 0,2110.1 1513.362,0 0,-2110.1 L 0,0 0,2110.1 z"
         id="path23876"
         inkscape:connector-curvature="0" /></clipPath><clipPath
       clipPathUnits="userSpaceOnUse"
       id="clipPath23904"><path
         d="m 0,2110.1 1513.362,0 0,-2110.1 L 0,0 0,2110.1 z"
         id="path23906"
         inkscape:connector-curvature="0" /></clipPath><clipPath
       clipPathUnits="userSpaceOnUse"
       id="clipPath24194"><path
         d="m 0,2110.1 1513.362,0 0,-2110.1 L 0,0 0,2110.1 z"
         id="path24196"
         inkscape:connector-curvature="0" /></clipPath><clipPath
       clipPathUnits="userSpaceOnUse"
       id="clipPath26438"><path
         d="m 0,2110.1 1513.362,0 0,-2110.1 L 0,0 0,2110.1 z"
         id="path26440"
         inkscape:connector-curvature="0" /></clipPath><clipPath
       clipPathUnits="userSpaceOnUse"
       id="clipPath26490"><path
         d="m 0,2110.1 1513.362,0 0,-2110.1 L 0,0 0,2110.1 z"
         id="path26492"
         inkscape:connector-curvature="0" /></clipPath><clipPath
       clipPathUnits="userSpaceOnUse"
       id="clipPath26662"><path
         d="m 0,2110.1 1513.362,0 0,-2110.1 L 0,0 0,2110.1 z"
         id="path26664"
         inkscape:connector-curvature="0" /></clipPath><clipPath
       clipPathUnits="userSpaceOnUse"
       id="clipPath26786"><path
         d="m 0,2110.1 1513.362,0 0,-2110.1 L 0,0 0,2110.1 z"
         id="path26788"
         inkscape:connector-curvature="0" /></clipPath></defs><sodipodi:namedview
     pagecolor="#ffffff"
     bordercolor="#666666"
     borderopacity="1"
     objecttolerance="10"
     gridtolerance="10"
     guidetolerance="10"
     inkscape:pageopacity="0"
     inkscape:pageshadow="2"
     inkscape:window-width="1920"
     inkscape:window-height="1017"
     id="namedview4"
     showgrid="false"
     fit-margin-top="0"
     fit-margin-left="0"
     fit-margin-right="0"
     fit-margin-bottom="0"
     inkscape:zoom="2.0245753"
     inkscape:cx="347.74512"
     inkscape:cy="31.345372"
     inkscape:window-x="-8"
     inkscape:window-y="-8"
     inkscape:window-maximized="1"
     inkscape:current-layer="g23902" /><g
     id="g10"
     inkscape:groupmode="layer"
     inkscape:label="ps"
     transform="matrix(1.25,0,0,-1.25,-99.51675,2110.6651)"><g
       clip-path="url(#clipPath23904)"
       id="g23902"><g
         transform="translate(144.1004,1664.5471)"
         id="g24066"><path
           inkscape:connector-curvature="0"
           id="path24068"
           style="fill:#343392;fill-opacity:1;fill-rule:nonzero;stroke:none"
           d="m 0,0 -4.592,0 c -0.219,0.633 -0.46,1.252 -0.724,1.875 -1.472,3.48 -3.579,6.597 -6.264,9.282 -2.684,2.684 -5.81,4.787 -9.289,6.259 -3.602,1.523 -7.428,2.293 -11.374,2.293 -3.947,0 -7.773,-0.773 -11.374,-2.296 -3.48,-1.472 -6.605,-3.58 -9.29,-6.264 C -55.591,8.464 -57.699,5.356 -59.171,1.876 -59.434,1.252 -59.676,0.633 -59.895,0 l -4.592,0 c 0.351,1.125 0.767,2.316 1.249,3.455 1.695,4.006 4.12,7.595 7.208,10.683 3.089,3.089 6.687,5.51 10.692,7.204 4.149,1.755 8.554,2.643 13.095,2.643 4.54,0 8.946,-0.891 13.094,-2.646 4.006,-1.694 7.604,-4.12 10.692,-7.209 C -5.368,11.042 -2.943,7.461 -1.249,3.455 -0.767,2.316 -0.351,1.125 0,0" /></g><g
         transform="translate(144.1004,1645.5651)"
         id="g24070"><path
           inkscape:connector-curvature="0"
           id="path24072"
           style="fill:#343392;fill-opacity:1;fill-rule:nonzero;stroke:none"
           d="m 0,0 c -0.351,-1.195 -0.767,-2.346 -1.249,-3.485 -1.694,-4.006 -4.119,-7.61 -7.208,-10.698 -3.088,-3.089 -6.686,-5.517 -10.692,-7.212 -4.148,-1.754 -8.554,-2.645 -13.094,-2.645 -4.541,0 -8.946,0.888 -13.095,2.643 -4.005,1.694 -7.603,4.12 -10.692,7.208 -3.088,3.088 -5.513,6.698 -7.208,10.704 -0.482,1.139 -0.898,2.29 -1.249,3.485 l 4.593,0 c 0.218,-0.633 0.46,-1.281 0.723,-1.906 1.472,-3.479 3.58,-6.611 6.264,-9.295 2.685,-2.685 5.81,-4.795 9.29,-6.266 3.601,-1.524 7.427,-2.298 11.374,-2.298 3.946,0 7.772,0.772 11.374,2.295 3.479,1.472 6.605,3.578 9.289,6.263 2.685,2.685 4.792,5.822 6.264,9.302 0.264,0.624 0.505,1.272 0.724,1.905 L 0,0 z" /></g><g
         transform="translate(111.4759,1660.6376)"
         id="g24074"><path
           inkscape:connector-curvature="0"
           id="path24076"
           style="fill:#80cc28;fill-opacity:1;fill-rule:nonzero;stroke:none"
           d="m 0,0 c 12.896,0 17.804,-9.237 18.137,-11.276 l -0.025,0 -17.416,0 c -12.58,0 -17.549,8.939 -18.046,11.16 -0.009,0.044 -0.018,0.085 -0.024,0.124 C -17.374,0.008 -0.503,0 0,0" /></g><g
         transform="translate(129.6818,1664.5471)"
         id="g24078"><path
           inkscape:connector-curvature="0"
           id="path24080"
           style="fill:#80cc28;fill-opacity:1;fill-rule:nonzero;stroke:none"
           d="m 0,0 0.001,0 -35.651,0 0,0 0,0 c 3.085,6.749 9.906,11.463 17.825,11.463 7.919,0 14.74,-4.714 17.826,-11.463 L 0,0 z" /></g><g
         transform="translate(129.6818,1645.5651)"
         id="g24082"><path
           inkscape:connector-curvature="0"
           id="path24084"
           style="fill:#80cc28;fill-opacity:1;fill-rule:nonzero;stroke:none"
           d="m 0,0 0.001,0 c -3.086,-6.749 -9.907,-11.463 -17.826,-11.463 -7.919,0 -14.74,4.714 -17.825,11.463 l 0,0 0,0 L 0.001,0 0,0 z" /></g><g
         transform="translate(166.7277,1668.9059)"
         id="g24086"><path
           inkscape:connector-curvature="0"
           id="path24088"
           style="fill:#231f20;fill-opacity:1;fill-rule:nonzero;stroke:none"
           d="m 0,0 -1.801,0 0,5.343 1.898,0 C 2.192,5.343 3.288,4.498 3.288,2.769 3.288,0.675 1.559,0 0,0 m 0.195,6.609 -3.472,0 0,-13.78 1.476,0 0,5.976 2.044,0 c 2.144,0 4.531,1.174 4.531,3.926 0,2.387 -1.681,3.878 -4.579,3.878" /></g><g
         transform="translate(185.2007,1662.5582)"
         id="g24090"><path
           inkscape:connector-curvature="0"
           id="path24092"
           style="fill:#231f20;fill-opacity:1;fill-rule:nonzero;stroke:none"
           d="m 0,0 c -3.434,0 -5.992,2.728 -5.992,6.065 0,3.337 2.558,6.065 5.992,6.065 3.434,0 5.991,-2.728 5.991,-6.065 C 5.991,2.728 3.434,0 0,0 m 0,13.396 c -4.287,0 -7.478,-3.288 -7.478,-7.331 0,-4.044 3.191,-7.331 7.478,-7.331 4.286,0 7.478,3.287 7.478,7.331 0,4.043 -3.192,7.331 -7.478,7.331" /></g><g
         transform="translate(214.2102,1675.5145)"
         id="g24094"><path
           inkscape:connector-curvature="0"
           id="path24096"
           style="fill:#231f20;fill-opacity:1;fill-rule:nonzero;stroke:none"
           d="m 0,0 0,-1.266 4.851,0 0,-12.514 1.476,0 0,12.514 4.851,0 0,1.266 L 0,0 z" /></g><g
         transform="translate(233.4031,1663.0004)"
         id="g24098"><path
           inkscape:connector-curvature="0"
           id="path24100"
           style="fill:#231f20;fill-opacity:1;fill-rule:nonzero;stroke:none"
           d="m 0,0 0,12.514 -1.476,0 0,-13.779 8.506,0 L 7.03,0 0,0 z" /></g><g
         transform="translate(249.9028,1667.8513)"
         id="g24102"><path
           inkscape:connector-curvature="0"
           id="path24104"
           style="fill:#231f20;fill-opacity:1;fill-rule:nonzero;stroke:none"
           d="M 0,0 1.997,6.008 3.97,0 0,0 z m 2.704,7.663 -1.437,0 -4.921,-13.779 1.535,0 1.73,4.991 4.749,0 1.729,-4.991 1.535,0 -4.92,13.779 z" /></g><g
         transform="translate(287.9547,1663.0707)"
         id="g24106"><path
           inkscape:connector-curvature="0"
           id="path24108"
           style="fill:#231f20;fill-opacity:1;fill-rule:nonzero;stroke:none"
           d="m 0,0 -2.949,0 0,11.178 2.827,0 C 3.24,11.178 6.089,9.024 6.089,5.516 6.089,1.984 3.361,0 0,0 m -0.195,12.444 -4.23,0 0,-13.78 4.352,0 c 3.945,0 7.648,2.335 7.648,6.841 0,4.457 -3.8,6.939 -7.77,6.939" /></g><g
         transform="translate(171.7207,1644.5458)"
         id="g24110"><path
           inkscape:connector-curvature="0"
           id="path24112"
           style="fill:#231f20;fill-opacity:1;fill-rule:nonzero;stroke:none"
           d="m 0,0 -2.987,1.851 c -0.975,0.585 -1.949,1.267 -1.949,2.209 0,0.974 0.875,1.948 2.531,1.948 2.014,0 4.259,-1.007 5.032,-1.396 l 0,3.28 c -0.562,0.26 -2.434,1.201 -5.032,1.201 -3.248,0 -6.039,-1.819 -6.039,-5.033 0,-2.826 1.883,-4.092 3.735,-5.262 l 2.988,-1.818 c 0.974,-0.617 1.916,-1.299 1.916,-2.209 0,-1.006 -1.05,-2.078 -3.192,-2.078 -2.275,0 -4.851,1.429 -5.695,1.851 l 0,-3.409 c 0.844,-0.391 2.901,-1.592 5.759,-1.592 3.637,0 6.63,1.949 6.63,5.326 C 3.697,-2.305 1.332,-0.811 0,0" /></g><g
         transform="translate(179.5504,1653.0875)"
         id="g24114"><path
           inkscape:connector-curvature="0"
           id="path24116"
           style="fill:#231f20;fill-opacity:1;fill-rule:nonzero;stroke:none"
           d="m 0,0 0,-3.023 6.468,0 0,-15.397 3.515,0 0,15.397 6.538,0 0,3.023 L 0,0 z" /></g><g
         transform="translate(225.0369,1637.7614)"
         id="g24118"><path
           inkscape:connector-curvature="0"
           id="path24120"
           style="fill:#231f20;fill-opacity:1;fill-rule:nonzero;stroke:none"
           d="m 0,0 0,4.71 5.695,0 0,3.023 -5.695,0 0,4.5 7.663,0 0,3.093 -11.178,0 0,-18.419 11.6,0 L 8.085,0 0,0 z" /></g><g
         transform="translate(243.5972,1637.7614)"
         id="g24122"><path
           inkscape:connector-curvature="0"
           id="path24124"
           style="fill:#231f20;fill-opacity:1;fill-rule:nonzero;stroke:none"
           d="m 0,0 0,4.71 5.765,0 0,3.023 -5.765,0 0,4.5 7.663,0 0,3.093 -11.108,0 0,-18.419 11.53,0 L 8.085,0 0,0 z" /></g><g
         transform="translate(255.9003,1653.0875)"
         id="g24126"><path
           inkscape:connector-curvature="0"
           id="path24128"
           style="fill:#231f20;fill-opacity:1;fill-rule:nonzero;stroke:none"
           d="m 0,0 0,-3.023 6.468,0 0,-15.397 3.585,0 0,15.397 6.468,0 0,3.023 L 0,0 z" /></g><g
         transform="translate(286.151,1650.5538)"
         id="g24130"><path
           inkscape:connector-curvature="0"
           id="path24132"
           style="fill:#231f20;fill-opacity:1;fill-rule:nonzero;stroke:none"
           d="m 0,0 c 2.923,0 5.464,-1.299 6.167,-1.656 l 0,3.475 c -0.633,0.259 -2.952,1.266 -6.589,1.266 -5.488,0 -10.39,-4.092 -10.39,-9.807 0,-5.716 4.933,-9.743 10.389,-9.743 3.865,0 5.957,1.04 6.59,1.299 l 0,3.41 c -0.774,-0.292 -3.211,-1.591 -6.427,-1.591 -3.637,0 -6.755,2.792 -6.755,6.657 0,3.929 3.28,6.69 7.015,6.69" /></g><g
         transform="translate(303.1656,1642.542)"
         id="g24134"><path
           inkscape:connector-curvature="0"
           id="path24136"
           style="fill:#231f20;fill-opacity:1;fill-rule:nonzero;stroke:none"
           d="M 0,0 2.176,6.138 4.352,0 0,0 z m 3.735,10.546 -3.021,0 -7.144,-18.42 3.637,0 1.851,5.202 6.235,0 1.851,-5.202 3.735,0 -7.144,18.42 z" /></g><g
         transform="translate(202.9883,1668.6951)"
         id="g24138"><path
           inkscape:connector-curvature="0"
           id="path24140"
           style="fill:#231f20;fill-opacity:1;fill-rule:nonzero;stroke:none"
           d="m 0,0 -1.573,0 0,5.554 1.671,0 C 2.314,5.554 3.434,4.679 3.434,2.875 3.434,0.684 1.635,0 0,0 m 1.683,-1.007 c 1.68,0.413 3.239,1.661 3.239,3.851 0,2.439 -1.728,3.975 -4.678,3.975 l -3.224,0 0,-13.779 1.407,0 0,5.765 1.671,0 3.923,-5.765 1.621,0 -3.959,5.953 z" /></g><g
         transform="translate(323.9749,1644.5808)"
         id="g24142"><path
           inkscape:connector-curvature="0"
           id="path24144"
           style="fill:#231f20;fill-opacity:1;fill-rule:nonzero;stroke:none"
           d="m 0,0 -1.567,0 0,5.413 1.989,0 C 2.436,5.413 3.54,4.525 3.54,2.836 3.54,1.181 1.917,0 0,0 m 8.122,-9.568 -4.997,7.167 c 1.462,0.813 3.922,2.501 3.922,5.484 0,3.313 -2.436,5.424 -6.625,5.424 l -5.504,0 0,-18.42 3.515,0 0,7.031 0.95,0 0.007,-0.005 3.617,-5.414 c 0.361,-0.515 0.818,-0.933 1.335,-1.24 0.109,-0.065 0.221,-0.125 0.336,-0.18 0.865,-0.414 1.867,-0.539 2.854,-0.313 0.166,0.038 0.328,0.086 0.487,0.142 0.133,0.048 0.183,0.209 0.103,0.324" /></g><g
         transform="translate(206.5675,1644.5808)"
         id="g24146"><path
           inkscape:connector-curvature="0"
           id="path24148"
           style="fill:#231f20;fill-opacity:1;fill-rule:nonzero;stroke:none"
           d="m 0,0 -1.567,0 0,5.413 1.989,0 C 2.436,5.413 3.54,4.525 3.54,2.836 3.54,1.181 1.916,0 0,0 m 8.122,-9.568 -4.997,7.167 c 1.462,0.813 3.922,2.501 3.922,5.484 0,3.313 -2.436,5.424 -6.625,5.424 l -5.504,0 0,-18.42 3.515,0 0,7.031 0.95,0 0.007,-0.005 3.617,-5.414 c 0.361,-0.515 0.818,-0.933 1.335,-1.24 0.109,-0.065 0.221,-0.125 0.336,-0.18 0.865,-0.414 1.867,-0.539 2.854,-0.313 0.166,0.038 0.328,0.086 0.487,0.142 0.133,0.048 0.183,0.209 0.103,0.324" /></g><g
         transform="translate(275.3745,1675.5145)"
         id="g24150"><path
           inkscape:connector-curvature="0"
           id="path24152"
           style="fill:#231f20;fill-opacity:1;fill-rule:nonzero;stroke:none"
           d="m 0,0 0,-13.78 -1.404,0 -8.439,11.472 0,-11.472 -1.476,0 0,13.78 1.463,0 8.45,-11.475 L -1.406,0 0,0 z" /></g></g></g></svg>